# xmcd
#
# Track frame offsets: 
#        150
#        13702
#        26160
#        41682
#        57020
#        77537
#        96137
#        111047
#        126982
#        144022
#        159190
#        171187
#        186780
#        202297
#        210892
#        226947
#        243887
#        257822
#        270310
#        287765
#        304097
#        320035
#
# Disc length: 4506 seconds
#
# Revision: 1
# Processed by: cddbd v1.5.2PL0 Copyright (c) Steve Scherf et al.
# Submitted via: ExactAudioCopy v1.3
#
DISCID=27119816
DTITLE=Tompall Glaser - The Rogue
DYEAR=1992
DGENRE=Country
TTITLE0=The Rogue
TTITLE1=Tears On My Pillow
TTITLE2=Forever And Ever
TTITLE3=Shackles And Chains
TTITLE4=My Pretty Quadroon
TTITLE5=Lean On Me
TTITLE6=I'll Hold You In My Heart
TTITLE7=True Love
TTITLE8=Open Arms
TTITLE9=I Love You So Much It Hurts
TTITLE10=Chattanooga Shoe Shine Boy
TTITLE11=You Can't Borrow Back Any Time
TTITLE12=Like An Old Country Song
TTITLE13=Sad Country Songs
TTITLE14=What A Town
TTITLE15=Don't Think You're Too Good For Country Music
TTITLE16=Unwanted Outlaw
TTITLE17=The Man You Think To See
TTITLE18=When I Dream
TTITLE19=Burn, Georgia Burn
TTITLE20=Billy Tyler
TTITLE21=Carry Me On
EXTD=
EXTT0=
EXTT1=
EXTT2=
EXTT3=
EXTT4=
EXTT5=
EXTT6=
EXTT7=
EXTT8=
EXTT9=
EXTT10=
EXTT11=
EXTT12=
EXTT13=
EXTT14=
EXTT15=
EXTT16=
EXTT17=
EXTT18=
EXTT19=
EXTT20=
EXTT21=
PLAYORDER=
